<svg xmlns="http://www.w3.org/2000/svg" xmlns:xlink="http://www.w3.org/1999/xlink" fill="none" version="1.1" width="24" height="24" viewBox="0 0 24 24"><defs><clipPath id="master_svg0_8_544"><rect x="0" y="0" width="24" height="24" rx="0"/></clipPath></defs><g style="mix-blend-mode:passthrough" clip-path="url(#master_svg0_8_544)"><g style="mix-blend-mode:passthrough"><g style="mix-blend-mode:passthrough"><path d="M6,14C4.89543,14,4,13.104569999999999,4,12C4,10.895430000000001,4.89543,10,6,10C7.10457,10,8,10.895430000000001,8,12C8,13.104569999999999,7.10457,14,6,14ZM10,12C10,9.79086,8.20914,8,6,8C3.79086,8,2,9.79086,2,12C2,14.20914,3.79086,16,6,16C8.20914,16,10,14.20914,10,12Z" fill-rule="evenodd" fill="#000000" fill-opacity="1"/></g><g style="mix-blend-mode:passthrough"><path d="M18,8C16.89543,8,16,7.10457,16,6C16,4.89543,16.89543,4,18,4C19.10457,4,20,4.89543,20,6C20,7.10457,19.10457,8,18,8ZM22,6C22,3.79086,20.209139999999998,2,18,2C15.79086,2,14,3.79086,14,6C14,8.20914,15.79086,10,18,10C20.209139999999998,10,22,8.20914,22,6Z" fill-rule="evenodd" fill="#000000" fill-opacity="1"/></g><g style="mix-blend-mode:passthrough"><path d="M18,20C16.89543,20,16,19.10457,16,18C16,16.89543,16.89543,16,18,16C19.10457,16,20,16.89543,20,18C20,19.10457,19.10457,20,18,20ZM22,18C22,15.79086,20.209139999999998,14,18,14C15.79086,14,14,15.79086,14,18C14,20.209139999999998,15.79086,22,18,22C20.209139999999998,22,22,20.209139999999998,22,18Z" fill-rule="evenodd" fill="#000000" fill-opacity="1"/></g><g style="mix-blend-mode:passthrough"><path d="M8.02590036392212,9.619528770446777C8.02590036392212,9.619528770446777,8.974100363922119,11.380468770446777,8.974100363922119,11.380468770446777C8.974100363922119,11.380468770446777,15.474100363922119,7.880468770446777,15.474100363922119,7.880468770446777C15.474100363922119,7.880468770446777,14.52590036392212,6.119528770446777,14.52590036392212,6.119528770446777C14.52590036392212,6.119528770446777,8.02590036392212,9.619528770446777,8.02590036392212,9.619528770446777Z" fill-rule="evenodd" fill="#000000" fill-opacity="1"/></g><g style="mix-blend-mode:passthrough"><path d="M8.974100363922119,12.619528770446777C8.974100363922119,12.619528770446777,8.02590036392212,14.380468770446777,8.02590036392212,14.380468770446777C8.02590036392212,14.380468770446777,14.52590036392212,17.880468770446775,14.52590036392212,17.880468770446775C14.52590036392212,17.880468770446775,15.474100363922119,16.119528770446777,15.474100363922119,16.119528770446777C15.474100363922119,16.119528770446777,8.974100363922119,12.619528770446777,8.974100363922119,12.619528770446777Z" fill-rule="evenodd" fill="#000000" fill-opacity="1"/></g></g></g></svg>